<?xml version="1.0" encoding="utf-8"?>
<!-- Generator: Adobe Illustrator 24.1.0, SVG Export Plug-In . SVG Version: 6.00 Build 0)  -->
<svg version="1.1" id="Layer_1" xmlns="http://www.w3.org/2000/svg" xmlns:xlink="http://www.w3.org/1999/xlink" x="0px" y="0px"
	 viewBox="0 0 512 512" style="enable-background:new 0 0 512 512;" xml:space="preserve">
<style type="text/css">
	.st0{fill:#FFFFFF;}
</style>
<g>
	<g>
		<path class="st0" d="M34,256l26.2,26.2c108,108,283.7,108,391.7,0L478,256l-26.2-26.2c-108-108-283.7-108-391.7,0
			C60.1,229.8,34,256,34,256z M256,382.2c-75.8,0-151.6-28.9-209.3-86.6l-32.9-32.9c-3.7-3.7-3.7-9.7,0-13.5l32.9-32.9
			c115.4-115.4,303.2-115.4,418.6,0l32.9,32.9c3.7,3.7,3.7,9.7,0,13.5l-32.9,32.9C407.6,353.3,331.8,382.2,256,382.2L256,382.2z"/>
		<path class="st0" d="M256,183.5c-40,0-72.5,32.5-72.5,72.5s32.5,72.5,72.5,72.5s72.5-32.5,72.5-72.5S296,183.5,256,183.5z
			 M256,347.5c-50.5,0-91.5-41.1-91.5-91.5c0-50.5,41.1-91.5,91.5-91.5s91.5,41.1,91.5,91.5C347.5,306.5,306.5,347.5,256,347.5z"/>
	</g>
</g>
</svg>
