<?xml version="1.0" encoding="utf-8"?>
<!-- Generator: Adobe Illustrator 24.1.0, SVG Export Plug-In . SVG Version: 6.00 Build 0)  -->
<svg version="1.1" id="Layer_1" xmlns="http://www.w3.org/2000/svg" xmlns:xlink="http://www.w3.org/1999/xlink" x="0px" y="0px"
	 viewBox="0 0 452 512" style="enable-background:new 0 0 452 512;" xml:space="preserve">
<style type="text/css">
	.st0{fill:#6C7D87;}
	.st1{fill:#566A75;}
	.st2{fill:#DD9A5E;}
	.st3{fill:#D18C54;}
	.st4{fill:#C6C6C6;}
	.st5{fill:#B7B7B7;}
	.st6{fill:#EDEDED;}
	.st7{fill:#DADADA;}
	.st8{fill:#4C4846;}
	.st9{fill:#3D3938;}
	.st10{fill:#EDAE6B;}
</style>
<path class="st0" d="M364.6,484.8c-0.4-1.8-22.4-112.3-22.6-113.4c-2.6-12.8-9.8-22.6-20.3-28.9c-6.3-3.8-9.9-4.4-14-5.7
	c2.9,1-52.6-18.4-75-26.2c-4.4-1.5-7.4-5.7-7.4-10.4v-23c-28.7,14.4-58.8,13.5-85.6,0.4v22.6c0,4.7-3,8.8-7.4,10.4
	c-3.2,1.1,11.4-3.9-30.8,10.6h0c0,0,0,0,0,0l0,0l-44.1,15.6c-2,0.6-6.1,1.8-5.8,1.7c-10.5,3.9-19.6,11.3-24.7,21.7
	c-3.5,7.2-2.5,4.6-19.6,90.6c-6.3,32.8-7.7,35.2-6.9,42.6c2.2,20.5,23.3,18.4,23.9,18.6c40.4,0,162.3,0,158.5,0c0.4,0,18.7,0,17.5,0
	c28.2,0,128,0,140.7,0C341.2,512,368.8,514.1,364.6,484.8z"/>
<path class="st1" d="M26.4,484.8L49,361.1c-0.3,1.5,1.7-16.5,18.7-27.9c-19,6.7-13.1,4-18.9,6.5c-11,5-19.5,13.4-23.8,25.3
	c-1.7,4.8-0.6,0.6-17.6,85.8c-6.3,32.8-7.7,35.2-6.9,42.6c2.2,20.5,23.3,18.4,23.9,18.6c2.5,0,22.7,0,25.8,0
	C31.9,512.1,24,501.4,26.4,484.8z"/>
<path class="st2" d="M70.9,512.1c-14.7,0-31.6,0-46.6,0c-0.6-0.3-24.6,2.2-24-22.9c0.1-5.3,0.8-5.6,7.1-38.3l0.4-1.8h63.2V512.1z"/>
<path class="st3" d="M32.9,449.1H7.7l-0.4,1.8c-6.3,32.8-7,32.9-7.1,38.3c-0.6,25,23.6,22.7,24,22.9c2.5,0,22.7,0,25.8,0
	c-16.7,0-24.4-8.8-24-22.9C26,487.5,26.7,484.1,32.9,449.1z"/>
<path class="st2" d="M139.8,273.8c0,64.1,0-7.3,0,43.2h0v1.5c0,10.2,6.5,19.4,16.3,22.6c15.6,5.2,35.6,5.8,53,0
	c9.7-3.3,16.3-12.4,16.3-22.6v-1.5h0c0-10,0-37.8,0-43.2C197.7,288.5,166.4,287.9,139.8,273.8z"/>
<path class="st3" d="M165.6,325.5L165.6,325.5c0-53.6,0-35.8,0-39.5c-8.9-1.8-17.6-4.8-25.8-9.2c0,64.1,0-10.3,0,40.2h0v1.5
	c0,10.2,6.5,19.4,16.3,22.6c4.8,1.6,9.9,2.8,15.1,3.4C164.7,335.6,165.7,326.2,165.6,325.5z"/>
<path class="st1" d="M70.9,423.8c-4.3,0-7.7,3.5-7.7,7.7v80.6c5.4,0,9.7,0,15.5,0v-80.6C78.6,427.2,75.2,423.8,70.9,423.8z"/>
<path class="st4" d="M432.8,512.1H182.6c-10.4,0-18.9-8.5-18.9-18.9l0,0c0-6,4.9-10.8,10.8-10.8h266.3c6,0,10.8,4.9,10.8,10.8l0,0
	C451.7,503.6,443.2,512.1,432.8,512.1z"/>
<path class="st5" d="M212.4,493.2L212.4,493.2c0-6,4.9-10.8,10.8-10.8h-48.7c-6,0-10.8,4.9-10.8,10.8v0c0,10.4,8.5,18.9,18.9,18.9
	h48.7C220.8,512.1,212.4,503.6,212.4,493.2z"/>
<path class="st6" d="M416.4,316.9H199c-6.8,0-12.4,5.6-12.4,12.4V470c0,6.8,5.6,12.4,12.4,12.4h217.4c6.8,0,12.4-5.6,12.4-12.4
	V329.3C428.8,322.5,423.2,316.9,416.4,316.9z"/>
<g>
	<path class="st7" d="M212.4,470V329.3c0-6.8,5.6-12.4,12.4-12.4H199c-6.8,0-12.4,5.6-12.4,12.4V470c0,6.8,5.6,12.4,12.4,12.4h25.8
		C218,482.3,212.4,476.8,212.4,470z"/>
	<circle class="st7" cx="307.7" cy="399.6" r="17.9"/>
</g>
<path class="st4" d="M307.7,381.8c-13.6,0-22.4,14.8-15.5,26.8c6.9,12,24.1,11.8,30.9,0C309.4,408.5,300.8,393.7,307.7,381.8z"/>
<path class="st8" d="M180.3,0.2C113.7,0.5,57.5,54.8,57.5,123.8v46.8h247.3c0-44.4,0-30.4,0-70.1c0-47.9-29.5-58.9-29.5-58.9
	C238.7-3.5,180.3,0.2,180.3,0.2"/>
<path class="st9" d="M197,0.9C121.5-7.6,60.2,49.3,57.6,119c-0.2,5-0.1,3.1-0.1,51.7H87v-46.8C87,59.9,135.4,7.7,197,0.9z"/>
<g>
	<path class="st2" d="M88,156c-15.5-5.5-32.3,4.8-32.3,19.7c0,15,16.8,25.3,32.3,19.7V156z"/>
	<path class="st2" d="M274.4,156c15.5-5.5,32.3,4.8,32.3,19.7c0,15-16.8,25.3-32.3,19.7V156z"/>
</g>
<g>
	<path class="st3" d="M57.9,166.6c-9.1,17.2,10,36,30.1,28.8v-18.2C76.3,181.5,63.2,176.7,57.9,166.6z"/>
	<path class="st3" d="M274.4,177.3v18.2c20.1,7.1,39.1-11.6,30.1-28.8C300.6,173.8,286.1,181.5,274.4,177.3z"/>
</g>
<path class="st10" d="M271.1,116.8c2.4,0.2,4.2,2.2,4.2,4.6c0,79.3,0.1,73.3-0.1,77c-1.2,24.1-11.5,46.3-28.3,62.6
	C188.1,318.4,90,277.8,87.1,197.4c-0.1-3.5-0.1-44.6-0.1-44.5c0-18.5,16.4-32.6,34.7-29.9c28.8,4.2,70.8,2.5,107.5-28.8
	c3.8-3.2,9.5-2.2,11.9,2.2C245.5,104.5,254.6,115.2,271.1,116.8z"/>
<path class="st2" d="M112.8,197.4c-0.1-3-0.1-58.7-0.1-74.4C98.4,125.1,87,137.5,87,152.9c0-0.1-0.1,41,0.1,44.5
	c2.2,59.3,56.1,96.9,107.8,89.7C152.4,281.2,114.6,246.8,112.8,197.4z"/>
</svg>
